<svg width="18" height="15" viewBox="0 0 18 15" fill="none" xmlns="http://www.w3.org/2000/svg">
<path d="M17.6203 2.17393C17.1649 2.78129 16.6146 3.3111 15.9904 3.7429C15.9904 3.90156 15.9904 4.06022 15.9904 4.22769C15.9954 7.10894 14.8445 9.87169 12.7957 11.8966C10.7469 13.9215 7.97167 15.0391 5.09206 14.999C3.4273 15.0045 1.78386 14.6244 0.290466 13.8883C0.209942 13.8532 0.158006 13.7735 0.158312 13.6856V13.5886C0.158312 13.4621 0.260869 13.3595 0.387379 13.3595C2.0238 13.3055 3.60184 12.7382 4.89824 11.7376C3.41705 11.7078 2.08436 10.8303 1.47104 9.48111C1.44006 9.40741 1.44971 9.32289 1.4965 9.25808C1.54328 9.19327 1.62044 9.15753 1.70011 9.16379C2.15028 9.20904 2.60494 9.16714 3.03927 9.04038C1.40416 8.70097 0.175559 7.34352 -0.000273196 5.68208C-0.00652252 5.60238 0.0291949 5.52518 0.0939757 5.47837C0.158757 5.43156 0.243237 5.42191 0.316897 5.4529C0.755689 5.64652 1.22936 5.7485 1.70892 5.75259C0.276176 4.81221 -0.342674 3.02358 0.202363 1.39825C0.258624 1.24032 0.39379 1.12365 0.55819 1.09111C0.722591 1.05858 0.891975 1.11498 1.0041 1.23959C2.9375 3.29731 5.59402 4.52349 8.41354 4.6596C8.34132 4.37142 8.30579 4.07525 8.30781 3.77816C8.33418 2.22032 9.29808 0.832559 10.7482 0.264583C12.1984 -0.303393 13.8478 0.0608181 14.9243 1.18671C15.6581 1.04692 16.3675 0.800438 17.03 0.455108C17.0785 0.424812 17.14 0.424812 17.1886 0.455108C17.2189 0.503656 17.2189 0.56522 17.1886 0.613768C16.8677 1.34854 16.3256 1.96482 15.638 2.37666C16.2401 2.30683 16.8317 2.16477 17.4 1.95356C17.4479 1.921 17.5108 1.921 17.5586 1.95356C17.5987 1.9719 17.6287 2.00697 17.6405 2.04943C17.6524 2.09189 17.645 2.13743 17.6203 2.17393Z" fill="#222222"/>
</svg>
