<svg width="13" height="13" viewBox="0 0 13 13" fill="none" xmlns="http://www.w3.org/2000/svg">
<path fill-rule="evenodd" clip-rule="evenodd" d="M0 1.43188C0 0.647549 0.632066 0.0117188 1.41176 0.0117188C1.78618 0.0117188 2.14527 0.161343 2.41002 0.427676C2.67478 0.694009 2.82352 1.05523 2.82352 1.43188C2.82352 2.21622 2.19145 2.85205 1.41176 2.85205C0.632066 2.85205 0 2.21622 0 1.43188ZM12.3545 7.40409C12.3789 5.86663 11.3362 4.51935 9.84866 4.16598C8.85177 3.95003 7.81267 4.2332 7.06043 4.9258V4.62755C7.06043 4.43146 6.90241 4.2725 6.70749 4.2725H4.94278C4.74786 4.2725 4.58984 4.43146 4.58984 4.62755V11.7287C4.58984 11.9248 4.74786 12.0837 4.94278 12.0837H6.70749C6.90241 12.0837 7.06043 11.9248 7.06043 11.7287V7.72365C7.043 7.01049 7.53707 6.38769 8.23219 6.24661C8.64608 6.17473 9.0703 6.29199 9.38959 6.56652C9.70887 6.84105 9.89007 7.24435 9.88395 7.66684V11.7287C9.88395 11.9248 10.042 12.0837 10.2369 12.0837H12.0016C12.1965 12.0837 12.3545 11.9248 12.3545 11.7287V7.40409ZM2.82214 4.62729V11.7287C2.82214 11.9248 2.66413 12.0837 2.4692 12.0837H0.704503C0.509579 12.0837 0.351562 11.9248 0.351562 11.7287V4.62729C0.351562 4.43119 0.509579 4.27222 0.704503 4.27222H2.4692C2.66413 4.27222 2.82214 4.43119 2.82214 4.62729Z" fill="#555555"/>
</svg>
