<svg width="18" height="19" viewBox="0 0 18 19" fill="none" xmlns="http://www.w3.org/2000/svg">
<path d="M13.9654 3.15001C13.6239 3.60827 13.2112 4.00801 12.743 4.33381C12.743 4.45352 12.743 4.57323 12.743 4.69959C12.7468 6.87351 11.8836 8.95802 10.347 10.4858C8.81045 12.0136 6.729 12.8569 4.56929 12.8266C3.32072 12.8308 2.08814 12.544 0.968094 11.9886C0.907701 11.9621 0.868748 11.902 0.868978 11.8356V11.7625C0.868978 11.667 0.945896 11.5896 1.04078 11.5896C2.2681 11.5489 3.45163 11.1208 4.42392 10.3659C3.31303 10.3434 2.31351 9.68131 1.85353 8.66332C1.83029 8.60772 1.83753 8.54395 1.87262 8.49505C1.90771 8.44615 1.96558 8.41918 2.02533 8.4239C2.36295 8.45804 2.70395 8.42643 3.0297 8.33079C1.80336 8.0747 0.881914 7.0505 0.750039 5.79693C0.745352 5.73679 0.77214 5.67855 0.820726 5.64323C0.869312 5.60791 0.932672 5.60063 0.987917 5.62402C1.31701 5.7701 1.67227 5.84704 2.03193 5.85013C0.957376 5.14061 0.493238 3.79107 0.902016 2.56476C0.944212 2.44559 1.04559 2.35757 1.16889 2.33302C1.29219 2.30847 1.41923 2.35103 1.50332 2.44505C2.95337 3.99761 4.94576 4.92277 7.0604 5.02546C7.00623 4.80803 6.97959 4.58457 6.9811 4.36041C7.00088 3.18501 7.7238 2.13794 8.81143 1.7094C9.89905 1.28085 11.1361 1.55565 11.9435 2.40514C12.4938 2.29967 13.0259 2.1137 13.5227 1.85315C13.5591 1.83029 13.6053 1.83029 13.6417 1.85315C13.6644 1.88978 13.6644 1.93623 13.6417 1.97286C13.401 2.52725 12.9945 2.99224 12.4787 3.30297C12.9304 3.25028 13.3741 3.1431 13.8003 2.98374C13.8361 2.95917 13.8833 2.95917 13.9192 2.98374C13.9493 2.99758 13.9717 3.02404 13.9806 3.05607C13.9896 3.08811 13.984 3.12247 13.9654 3.15001Z" fill="#555555"/>
</svg>
